<svg width="24" height="24" viewBox="0 0 24 24" fill="none" xmlns="http://www.w3.org/2000/svg">
<path d="M15.3359 9.9228C15.0626 9.9228 14.8359 9.69614 14.8359 9.4228V8.5028C14.8359 7.8028 14.5359 7.1228 14.0159 6.64947C13.4893 6.16947 12.8093 5.94947 12.0893 6.01614C10.8893 6.12947 9.83594 7.35614 9.83594 8.63614V9.2828C9.83594 9.55614 9.60927 9.7828 9.33594 9.7828C9.0626 9.7828 8.83594 9.55614 8.83594 9.2828V8.62947C8.83594 6.83614 10.2826 5.1828 11.9959 5.01614C12.9959 4.9228 13.9559 5.23614 14.6893 5.90947C15.4159 6.56947 15.8359 7.51614 15.8359 8.5028V9.4228C15.8359 9.69614 15.6093 9.9228 15.3359 9.9228Z" fill="white"/>
<path d="M14.3358 19.3361H10.3358C7.25582 19.3361 6.68248 17.9028 6.53582 16.5095L6.03582 12.5161C5.96248 11.7961 5.93582 10.7628 6.63582 9.98947C7.23582 9.32281 8.22915 9.00281 9.66915 9.00281H15.0025C16.4492 9.00281 17.4425 9.32947 18.0358 9.98947C18.7291 10.7628 18.7092 11.7961 18.6358 12.5028L18.1358 16.5095C17.9892 17.9028 17.4158 19.3361 14.3358 19.3361ZM9.66915 10.0028C8.54248 10.0028 7.76915 10.2228 7.37582 10.6628C7.04915 11.0228 6.94248 11.5761 7.02915 12.4028L7.52915 16.3961C7.64248 17.4628 7.93582 18.3428 10.3358 18.3428H14.3358C16.7358 18.3428 17.0292 17.4695 17.1425 16.4095L17.6425 12.4028C17.7291 11.5895 17.6225 11.0361 17.2958 10.6695C16.9025 10.2228 16.1291 10.0028 15.0025 10.0028H9.66915Z" fill="white"/>
</svg>
