<svg width="18" height="18" viewBox="0 0 18 18" fill="none" xmlns="http://www.w3.org/2000/svg">
<g clip-path="url(#clip0_1094_134)">
<path fill-rule="evenodd" clip-rule="evenodd" d="M16.9786 3.38527C16.7585 2.81584 16.4218 2.29869 15.9901 1.86701C15.5584 1.43533 15.0413 1.09864 14.4718 0.87855C13.9265 0.666432 13.3032 0.521672 12.3914 0.479952C11.4796 0.438233 11.185 0.429688 8.85674 0.429688C6.52847 0.429688 6.23744 0.43974 5.32313 0.479952C4.40881 0.520164 3.78755 0.666432 3.24268 0.87855C2.67313 1.09845 2.15588 1.43507 1.72418 1.86678C1.29247 2.29848 0.955862 2.81573 0.73596 3.38527C0.523842 3.93064 0.378592 4.55342 0.337374 5.46573C0.296157 6.37804 0.287109 6.67209 0.287109 8.99986C0.287109 11.3276 0.297162 11.6197 0.337374 12.534C0.377586 13.4483 0.523842 14.0691 0.73596 14.6144C0.956052 15.1839 1.29274 15.701 1.72442 16.1327C2.1561 16.5644 2.67324 16.9011 3.24268 17.1212C3.78755 17.3333 4.41082 17.478 5.32313 17.5198C6.23543 17.5615 6.52947 17.57 8.85674 17.57C11.184 17.57 11.4771 17.56 12.3914 17.5198C13.3057 17.4796 13.9265 17.3333 14.4718 17.1212C15.0411 16.9008 15.5582 16.5641 15.9898 16.1324C16.4215 15.7008 16.7582 15.1838 16.9786 14.6144C17.1907 14.0691 17.3355 13.4463 17.3772 12.534C17.4189 11.6217 17.4275 11.3276 17.4275 8.99986C17.4275 6.67209 17.4179 6.38005 17.3772 5.46573C17.3365 4.55141 17.1907 3.93064 16.9786 3.38527ZM8.85674 13.4011C7.98615 13.4011 7.1351 13.1429 6.41123 12.6592C5.68737 12.1755 5.12323 11.488 4.79009 10.6837C4.45695 9.87936 4.36977 8.99429 4.53965 8.14043C4.70953 7.28657 5.1288 6.50228 5.74444 5.88671C6.36008 5.27114 7.14448 4.85195 7.99836 4.68217C8.85224 4.51238 9.73725 4.59962 10.5415 4.93285C11.3458 5.26609 12.0333 5.83034 12.5169 6.55427C13.0005 7.27819 13.2586 8.12926 13.2585 8.99986C13.2585 9.57788 13.1446 10.1502 12.9234 10.6842C12.7022 11.2182 12.3779 11.7035 11.9692 12.1121C11.5604 12.5208 11.0752 12.845 10.5412 13.0662C10.0071 13.2873 9.43476 13.4011 8.85674 13.4011ZM13.4309 5.45316C13.2273 5.45316 13.0284 5.39282 12.8592 5.27976C12.69 5.1667 12.5582 5.006 12.4803 4.81799C12.4024 4.62998 12.382 4.4231 12.4217 4.22351C12.4614 4.02392 12.5594 3.84057 12.7033 3.69668C12.8472 3.55278 13.0305 3.45479 13.2301 3.41509C13.4297 3.37539 13.6366 3.39576 13.8246 3.47364C14.0126 3.55151 14.1733 3.68339 14.2864 3.8526C14.3994 4.02181 14.4598 4.22074 14.4598 4.42424C14.4598 4.69652 14.3519 4.95769 14.1597 5.15055C13.9675 5.34341 13.7067 5.45223 13.4344 5.45316H13.4309ZM11.7128 8.99986C11.7129 9.56505 11.5454 10.1176 11.2315 10.5876C10.9175 11.0576 10.4713 11.4239 9.94912 11.6403C9.42698 11.8566 8.85243 11.9133 8.29808 11.8031C7.74374 11.6929 7.23449 11.4207 6.8348 11.0211C6.43512 10.6215 6.16295 10.1124 6.05265 9.55803C5.94235 9.0037 5.99891 8.42911 6.21518 7.90693C6.43145 7.38475 6.79767 6.93844 7.2676 6.62442C7.73754 6.31041 8.29007 6.1428 8.85527 6.1428C9.23063 6.14253 9.60235 6.21624 9.94922 6.3597C10.2961 6.50316 10.6113 6.71358 10.8768 6.9789C11.1423 7.24423 11.3529 7.55928 11.4966 7.90604C11.6403 8.25281 11.7143 8.6245 11.7143 8.99986H11.7128Z" fill="white"/>
</g>
<defs>
<clipPath id="clip0_1094_134">
<rect width="17.1429" height="17.1429" fill="white" transform="translate(0.285156 0.429688)"/>
</clipPath>
</defs>
</svg>
