<svg width="25" height="18" viewBox="0 0 25 18" fill="none" xmlns="http://www.w3.org/2000/svg">
<g clip-path="url(#clip0_1094_138)">
<path fill-rule="evenodd" clip-rule="evenodd" d="M23.3034 1.70889C22.3744 0.737692 21.3374 0.733407 20.8607 0.676236C17.4505 0.429684 12.3344 0.429688 12.3344 0.429688H12.3236C12.3236 0.429688 7.20753 0.429684 3.79654 0.676236C3.32059 0.733407 2.2815 0.737692 1.35461 1.70889C0.62353 2.44855 0.386213 4.12796 0.386213 4.12796C0.234512 5.43761 0.153222 6.75444 0.142578 8.07279V9.92157C0.153222 11.2399 0.234512 12.5568 0.386213 13.8664C0.386213 13.8664 0.62353 15.5458 1.35461 16.2855C2.28365 17.2567 3.49849 17.2259 4.04234 17.3274C5.99188 17.5147 12.3322 17.5725 12.3322 17.5725C12.3322 17.5725 17.4541 17.5647 20.8644 17.3181C21.341 17.261 22.3801 17.2567 23.307 16.2855C24.0374 15.5458 24.2753 13.8664 24.2753 13.8664C24.427 12.5568 24.5084 11.2399 24.519 9.92157V8.07279C24.5084 6.75444 24.427 5.43761 24.2753 4.12796C24.2753 4.12796 24.0338 2.44855 23.3034 1.70889ZM9.81168 12.1627V5.31427L16.3971 8.75027L9.81168 12.1627Z" fill="white"/>
</g>
<defs>
<clipPath id="clip0_1094_138">
<rect width="24.3729" height="17.1429" fill="white" transform="translate(0.142578 0.429688)"/>
</clipPath>
</defs>
</svg>
