<svg width="19" height="18" viewBox="0 0 19 18" fill="none" xmlns="http://www.w3.org/2000/svg">
<g clip-path="url(#clip0_1094_131)">
<path d="M17.4968 1.86698C16.7725 2.37787 15.9706 2.76861 15.1219 3.02417C14.6664 2.50042 14.061 2.1292 13.3876 1.96071C12.7143 1.79222 12.0054 1.83461 11.3569 2.08212C10.7084 2.32964 10.1516 2.77035 9.76174 3.34464C9.37188 3.91894 9.1678 4.59912 9.1771 5.29318V6.04951C7.84795 6.08398 6.5309 5.78919 5.34325 5.19141C4.1556 4.59363 3.13423 3.71141 2.37009 2.62332C2.37009 2.62332 -0.655247 9.43033 6.15176 12.4557C4.59411 13.513 2.73854 14.0432 0.857422 13.9683C7.66443 17.75 15.9841 13.9683 15.9841 5.27049C15.9834 5.05981 15.9632 4.84966 15.9236 4.64273C16.6955 3.88147 17.2403 2.92034 17.4968 1.86698Z" fill="white"/>
</g>
<defs>
<clipPath id="clip0_1094_131">
<rect width="17.1724" height="17.1429" fill="white" transform="translate(0.857422 0.429688)"/>
</clipPath>
</defs>
</svg>
