<svg width="24" height="24" viewBox="0 0 24 24" fill="none" xmlns="http://www.w3.org/2000/svg">
<path d="M12.2259 12.6667C10.1126 12.6667 8.39258 10.9467 8.39258 8.83333C8.39258 6.72 10.1126 5 12.2259 5C14.3392 5 16.0592 6.72 16.0592 8.83333C16.0592 10.9467 14.3392 12.6667 12.2259 12.6667ZM12.2259 6C10.6659 6 9.39258 7.27333 9.39258 8.83333C9.39258 10.3933 10.6659 11.6667 12.2259 11.6667C13.7859 11.6667 15.0592 10.3933 15.0592 8.83333C15.0592 7.27333 13.7859 6 12.2259 6Z" fill="white"/>
<path d="M17.9533 19.3333C17.68 19.3333 17.4533 19.1066 17.4533 18.8333C17.4533 16.5333 15.1067 14.6666 12.2267 14.6666C9.34666 14.6666 7 16.5333 7 18.8333C7 19.1066 6.77333 19.3333 6.5 19.3333C6.22667 19.3333 6 19.1066 6 18.8333C6 15.9866 8.79333 13.6666 12.2267 13.6666C15.66 13.6666 18.4533 15.9866 18.4533 18.8333C18.4533 19.1066 18.2267 19.3333 17.9533 19.3333Z" fill="white"/>
</svg>
