<svg width="16" height="16" viewBox="0 0 16 16" fill="none" xmlns="http://www.w3.org/2000/svg">
<path d="M7.66597 14.5C3.89931 14.5 0.832642 11.4333 0.832642 7.66662C0.832642 3.89996 3.89931 0.83329 7.66597 0.83329C11.4326 0.83329 14.4993 3.89996 14.4993 7.66662C14.4993 11.4333 11.4326 14.5 7.66597 14.5ZM7.66597 1.83329C4.44597 1.83329 1.83264 4.45329 1.83264 7.66662C1.83264 10.88 4.44597 13.5 7.66597 13.5C10.886 13.5 13.4993 10.88 13.4993 7.66662C13.4993 4.45329 10.886 1.83329 7.66597 1.83329Z" fill="white"/>
<path d="M14.6665 15.1666C14.5398 15.1666 14.4132 15.12 14.3132 15.02L12.9798 13.6866C12.7865 13.4933 12.7865 13.1733 12.9798 12.98C13.1732 12.7866 13.4932 12.7866 13.6865 12.98L15.0198 14.3133C15.2132 14.5066 15.2132 14.8266 15.0198 15.02C14.9198 15.12 14.7932 15.1666 14.6665 15.1666Z" fill="white"/>
</svg>
