<svg width="22" height="22" viewBox="0 0 22 22" fill="none" xmlns="http://www.w3.org/2000/svg">
<path d="M10.1447 1.41199C10.5339 0.76947 11.4661 0.76947 11.8553 1.41199L14.7463 6.18454C14.8855 6.41444 15.1115 6.57859 15.3732 6.63999L20.8055 7.91467C21.5368 8.08628 21.8249 8.97287 21.3341 9.54158L17.6885 13.7659C17.5129 13.9693 17.4266 14.235 17.4491 14.5028L17.9154 20.0631C17.9782 20.8117 17.2241 21.3597 16.5315 21.0686L11.3874 18.9068C11.1396 18.8027 10.8604 18.8027 10.6126 18.9068L5.46849 21.0686C4.77595 21.3597 4.02177 20.8117 4.08456 20.0631L4.55095 14.5028C4.57341 14.2349 4.48711 13.9693 4.3115 13.7659L0.6659 9.54158C0.175096 8.97287 0.463167 8.08628 1.19451 7.91467L6.62684 6.63999C6.88851 6.57859 7.11445 6.41444 7.25371 6.18454L10.1447 1.41199Z" fill="#F9C355"/>
</svg>
