<svg width="22" height="22" viewBox="0 0 22 22" fill="none" xmlns="http://www.w3.org/2000/svg">
<path d="M10.5723 1.6709C10.7669 1.34974 11.2331 1.34974 11.4277 1.6709L14.3184 6.44336C14.5272 6.78817 14.8663 7.03483 15.2588 7.12695L20.6914 8.40137C21.0569 8.48721 21.2011 8.93051 20.9561 9.21484L17.3096 13.4395C17.0464 13.7446 16.9175 14.1433 16.9512 14.5449L17.417 20.1045C17.4484 20.4787 17.0718 20.7527 16.7256 20.6074L11.5811 18.4463C11.2094 18.2901 10.7906 18.2901 10.4189 18.4463L5.27441 20.6074C4.9282 20.7527 4.55162 20.4787 4.58301 20.1045L5.04883 14.5449C5.08251 14.1433 4.95364 13.7446 4.69043 13.4395L1.04395 9.21484C0.798897 8.93051 0.943122 8.48721 1.30859 8.40137L6.74121 7.12695C7.13368 7.03483 7.47277 6.78817 7.68164 6.44336L10.5723 1.6709Z" stroke="#F9C355"/>
</svg>
